<svg id="Calque_4" data-name="Calque 4" xmlns="http://www.w3.org/2000/svg" viewBox="0 0 389 478.89"><defs><style>.cls-1{fill:#fff;}</style></defs><path class="cls-1" d="M596.6,810.11q-10.51,91.85-21,183.69l-2,17.53q-4,34.77-8,69.56l20.8-23.68Z" transform="translate(-386 -602)"/><polygon class="cls-1" points="204 276 278 246 327 109 276 228 204 276"/><polygon class="cls-1" points="203.81 290 131.74 222.11 0 195 118.14 206.5 56 63 122 193 203.81 290"/><polygon class="cls-1" points="128.9 202.68 219.05 100.18 149 166 128.9 202.68"/><polygon class="cls-1" points="161.91 151 122.91 48 142.41 83 152.91 0 150 75.5 149.91 99 161.91 151"/><polygon class="cls-1" points="271.16 234.11 241 153 256.08 67.3 250.76 135 249.4 150.71 271.16 234.11"/><polygon class="cls-1" points="265.84 243.2 389 221.5 389 161.4 379.47 216 265.84 243.2"/></svg>