<svg id="Calque_5" data-name="Calque 5" xmlns="http://www.w3.org/2000/svg" viewBox="0 0 476.2 422.79"><defs><style>.cls-1{fill:none;}.cls-1,.cls-2{stroke:#fff;stroke-miterlimit:10;}.cls-2{fill:#fff;}</style></defs><rect class="cls-1" x="40" y="219.16" width="435" height="185"/><polygon class="cls-1" points="257.5 0.71 475 219.16 40 219.16 129.97 128.79 257.5 0.71"/><polygon class="cls-1" points="138 14.16 138 121.73 182 74.16 182 14.16 138 14.16"/><rect class="cls-1" x="78" y="321.16" width="47" height="83"/><path class="cls-2" d="M291.14,889.56c-5-3.77-12-11.32-10-15.49s12.62-5.18,16.14-2.15c.3.25.84.79,1.36.65,1.56-.44-.46-6.25,2-9.5s8.39-3.39,12.49-1.5c6.46,3,8.89,11.71,7.61,14.83-.09.23-.36.81-.11,1.17.69,1,4.07-1.26,7.5-1.5,4.27-.31,10,2.34,11.5,7,1.57,4.87-2.13,10-5.5,12.49-1.08.79-4.64,3.13-18,1.5C305.32,895.74,298.2,894.88,291.14,889.56Z" transform="translate(-172.5 -475.34)"/><rect class="cls-1" x="214" y="251.16" width="38" height="70"/><rect class="cls-1" x="288" y="251.16" width="38" height="70"/><rect class="cls-1" x="364" y="251.16" width="38" height="70"/><path class="cls-2" d="M220.59,889.26c4.89-3.77,11.72-11.32,9.74-15.5s-12.29-5.18-15.73-2.15c-.28.26-.81.8-1.31.65-1.52-.44.44-6.25-1.95-9.5-2.28-3.09-8.18-3.38-12.17-1.49-6.29,3-8.66,11.7-7.41,14.83.09.23.35.81.1,1.16-.66,1-4-1.25-7.3-1.5-4.16-.3-9.74,2.35-11.2,7-1.52,4.88,2.07,10,5.36,12.5,1,.78,4.51,3.13,17.53,1.5C206.78,895.44,213.72,894.57,220.59,889.26Z" transform="translate(-172.5 -475.34)"/><path class="cls-2" d="M321,889.26c-5-3.77-12-11.32-10-15.5s12.62-5.18,16.14-2.15c.3.26.84.8,1.36.65,1.56-.44-.46-6.25,2-9.5,2.34-3.09,8.39-3.38,12.49-1.49,6.46,3,8.89,11.7,7.61,14.83-.09.23-.36.81-.11,1.16.69,1,4.07-1.25,7.5-1.5,4.27-.3,10,2.35,11.5,7,1.57,4.88-2.13,10-5.5,12.5-1.07.78-4.63,3.13-18,1.5C335.22,895.44,328.1,894.57,321,889.26Z" transform="translate(-172.5 -475.34)"/></svg>