<svg id="Calque_6" data-name="Calque 6" xmlns="http://www.w3.org/2000/svg" viewBox="0 0 805.97 401.54"><defs><style>.cls-1{fill:#fff;stroke:#fff;stroke-miterlimit:10;}</style></defs><path class="cls-1" d="M586.5,765.5c-79.2-30.42-88.07-61.06-90-71-9.88-50.86,53.87-115.22,98-110,26,3.08,47.53,30.68,54,25,3.87-3.4-1.64-15.17-4-21-16.09-39.79-1.93-91.54,15-119,27.38-44.4,92.35-74.44,143-56,35.62,13,65.82,50.51,76,87,6.65,23.85,5.18,48.81,18,53,9.85,3.22,21.5-8,26-12,38.85-34.57,106.35-30.89,141-29,101.89,5.55,167.81,77.67,180,91,26.5,29,66.2,72.41,55,117-11.37,45.26-68.63,65.65-96,75-97.74,33.37-140.92-6.87-283-16C761.93,769.37,707.44,812,586.5,765.5Z" transform="translate(-494.98 -407.48)"/></svg>